<svg viewBox="0 0 262 200" xmlns="http://www.w3.org/2000/svg" fill="currentColor">
<path d="M0 0 C5.07014956 0.06832484 10.13052277 0.0141986 15.20008278 -0.0718689 C38.70915734 -0.41232224 56.90863059 1.11936593 76.98158264 13.99008179 C81.78149257 16.9365652 86.87104915 19.25507648 91.97314453 21.62475586 C93.83443085 22.51410694 95.69519594 23.40455067 97.55517578 24.29663086 C100.98123065 25.90815712 104.42671414 27.43619082 107.92236328 28.89038086 C127.50272947 37.05892575 127.50272947 37.05892575 131.84814453 45.74975586 C132.38563749 50.64887203 132.41489327 54.59446035 130.22314453 59.06225586 C124.76721596 65.23606977 118.81536407 68.52241493 111.47314453 72.06225586 C109.48354346 73.03878222 107.49396021 74.0153449 105.50439453 74.99194336 C104.53373047 75.46470703 103.56306641 75.9374707 102.56298828 76.42456055 C99.02034071 78.15383132 95.49598349 79.91810572 91.97314453 81.68725586 C90.71404656 82.31489334 89.4549313 82.94249615 88.19580078 83.57006836 C84.73678755 85.29832983 81.2900882 87.05009483 77.84423828 88.80444336 C76.78253418 89.34206299 75.72083008 89.87968262 74.62695312 90.43359375 C72.53492701 91.49294598 70.44526793 92.55699014 68.35839844 93.62646484 C66.90119385 94.36231812 66.90119385 94.36231812 65.41455078 95.11303711 C64.55804932 95.54914307 63.70154785 95.98524902 62.8190918 96.43457031 C61.8386792 96.86858154 60.8582666 97.30259277 59.84814453 97.74975586 C59.2851918 98.01859589 58.72223907 98.28743591 58.14222717 98.56442261 C50.03688083 101.89644918 41.13222469 101.22267578 32.52392578 101.21850586 C30.73186509 101.22562061 28.93980665 101.23332149 27.14775085 101.24157715 C23.39978705 101.25498174 19.65203371 101.25660986 15.90405273 101.25073242 C11.13765828 101.24485312 6.37228832 101.27537315 1.6060915 101.3158493 C-2.09435823 101.34190291 -5.79456743 101.34458761 -9.49509621 101.34095764 C-11.25030901 101.34263375 -13.00553479 101.35212817 -14.76065636 101.37010193 C-29.27273666 101.50233294 -40.43297857 98.8506389 -53.15185547 91.56225586 C-59.70896007 87.95037578 -66.38086741 84.7425796 -73.21435547 81.68725586 C-82.32071135 77.60512344 -91.31316896 73.38528997 -100.15185547 68.74975586 C-101.15087891 68.22768555 -102.14990234 67.70561523 -103.17919922 67.16772461 C-108.36446495 64.28194529 -112.83010502 61.4097445 -115.15185547 55.74975586 C-116.09926899 51.68101872 -115.93130637 48.41177569 -114.14794922 44.60913086 C-106.32892778 32.93628974 -89.25482535 27.70196033 -77.06494141 21.72680664 C-75.83789256 21.12513475 -74.61195469 20.52118827 -73.38748169 19.91429138 C-72.12070396 19.29096821 -70.84934792 18.6768075 -69.57229614 18.07481384 C-65.67354306 16.18858076 -62.18654094 14.11208572 -58.68701172 11.55639648 C-40.44575357 -1.00597308 -21.41314172 -0.29380265 0 0 Z M-54.93066406 16.32641602 C-58.32021981 18.49844394 -61.89835594 20.206083 -65.52685547 21.93725586 C-71.24627732 24.75657842 -76.88666047 27.70329107 -82.48901367 30.74829102 C-85.7668816 32.51919784 -89.06389512 34.20189112 -92.43701172 35.78491211 C-102.80226136 40.42269006 -102.80226136 40.42269006 -110.15185547 48.74975586 C-110.30109375 52.48071291 -109.56721608 54.13065201 -107.50341797 57.20678711 C-104.78359697 60.14798889 -101.97745077 61.66570123 -98.40185547 63.31225586 C-96.960016 64.00406201 -95.51863905 64.69683267 -94.07763672 65.39038086 C-93.2908252 65.76485352 -92.50401367 66.13932617 -91.69335938 66.52514648 C-87.97722927 68.31574289 -84.29869265 70.17900408 -80.61572266 72.03662109 C-68.75263014 78.01697485 -56.80092793 83.79830836 -44.79052734 89.47631836 C-43.30509038 90.19319837 -41.82980039 90.93658298 -40.40310669 91.76422119 C-35.02714451 94.76571409 -30.5628472 95.38985378 -24.45654297 95.42163086 C-23.54663605 95.43494446 -22.63672913 95.44825806 -21.69924927 95.4619751 C-19.78151462 95.48212571 -17.86364118 95.49161232 -15.94580078 95.4909668 C-13.05371741 95.49967498 -10.16785252 95.57227018 -7.27685547 95.64819336 C5.02171937 95.79607308 12.86032204 94.11498835 22.84814453 86.74975586 C24.40784717 85.70390531 25.96971861 84.66126524 27.53564453 83.62475586 C28.23818359 83.14393555 28.94072266 82.66311523 29.66455078 82.16772461 C32.92170515 80.05261363 36.34256535 78.27415271 39.76611328 76.44506836 C43.98252621 74.12577405 48.09312377 71.64427566 52.20532227 69.14599609 C57.18861983 66.12235782 62.24710518 63.25322969 67.35986328 60.45288086 C70.7243456 58.15003268 73.05274077 55.44661721 74.78564453 51.74975586 C74.88192871 48.66866213 73.67475693 47.18523906 71.84814453 44.74975586 C59.37071533 33.65870768 41.08796899 28.87324359 24.84814453 29.74975586 C25.61126953 30.49225586 26.37439453 31.23475586 27.16064453 31.99975586 C31.27574112 36.21055236 33.59485804 39.06491908 34.16064453 45.06225586 C33.79255812 49.40567548 32.42892831 51.30871083 29.84814453 54.74975586 C29.51814453 55.73975586 29.18814453 56.72975586 28.84814453 57.74975586 C26.98486328 58.77319336 26.98486328 58.77319336 24.84814453 59.74975586 C23.77068524 60.60626781 22.70920845 61.48310293 21.66064453 62.37475586 C17.5224365 65.53286199 13.09026326 67.76971659 8.41064453 69.99975586 C7.70721924 70.34087402 7.00379395 70.68199219 6.27905273 71.03344727 C-7.71087034 77.53009553 -22.13154632 77.5165715 -36.48266602 72.37451172 C-38.71866428 71.52894986 -40.93671511 70.64843895 -43.15185547 69.74975586 C-43.86390137 69.46648437 -44.57594727 69.18321289 -45.30957031 68.89135742 C-61.09821023 62.49382544 -61.09821023 62.49382544 -64.15185547 55.74975586 C-65.15175738 51.57130398 -64.59223143 48.52982136 -62.46044922 44.75366211 C-56.96783338 37.60675589 -47.97147757 33.53316542 -40.12060547 29.37084961 C-35.9814891 27.11067422 -31.96388428 24.66345353 -27.93237305 22.21801758 C-22.41372599 18.87998453 -16.8120884 15.70771752 -11.17529297 12.57397461 C-8.27804757 10.82589502 -5.76890957 8.8854777 -3.15185547 6.74975586 C-22.77284568 5.4793576 -37.99576513 5.08325495 -54.93066406 16.32641602 Z M-10.12464905 16.32849121 C-13.52277438 18.7109005 -17.11781607 20.74746991 -20.71435547 22.81225586 C-22.11468711 23.63155727 -23.51449912 24.45174806 -24.91357422 25.27319336 C-27.06490733 26.53092653 -29.21681622 27.78766513 -31.36914062 29.04370117 C-35.67091744 31.55518108 -39.96692493 34.07578275 -44.24951172 36.61987305 C-46.01680719 37.66954495 -47.78732662 38.71378358 -49.55810547 39.75756836 C-50.53779297 40.35311523 -51.51748047 40.94866211 -52.52685547 41.56225586 C-53.35958984 42.06370117 -54.19232422 42.56514648 -55.05029297 43.08178711 C-57.53389438 45.05297262 -58.76556361 46.9103092 -60.15185547 49.74975586 C-60.23426127 53.70523425 -59.57273828 55.26874694 -56.96435547 58.24975586 C-46.49166443 66.0790994 -29.95835672 71.95642071 -16.83935547 71.81225586 C-15.77072266 71.80323242 -14.70208984 71.79420898 -13.60107422 71.78491211 C-12.38871094 71.76750977 -12.38871094 71.76750977 -11.15185547 71.74975586 C-11.76673828 71.04399414 -11.76673828 71.04399414 -12.39404297 70.32397461 C-12.93287109 69.70135742 -13.47169922 69.07874023 -14.02685547 68.43725586 C-14.56052734 67.82237305 -15.09419922 67.20749023 -15.64404297 66.57397461 C-19.19785339 62.27441641 -19.60527119 59.65043994 -19.44873047 54.23413086 C-18.65956484 47.63006063 -13.0224532 43.23184737 -8.26123047 39.06225586 C-2.37097646 34.68156443 4.14212232 31.67223888 10.84814453 28.74975586 C11.68861328 28.36561523 12.52908203 27.98147461 13.39501953 27.58569336 C29.03098453 21.65289813 45.74576666 26.28567077 60.37890625 32.59814453 C74.04612155 38.97230456 74.04612155 38.97230456 77.84814453 44.74975586 C79.27340897 48.76787426 79.12860775 51.81487846 77.91064453 55.87475586 C71.97551375 64.14796847 61.43286664 68.62827988 52.78662109 73.62475586 C50.45896466 74.97561743 48.15094592 76.35699626 45.84814453 77.74975586 C42.79592429 79.594794 39.72597659 81.4053456 36.64111328 83.19506836 C35.88378906 83.63592773 35.12646484 84.07678711 34.34619141 84.53100586 C32.84033343 85.40677111 31.33260451 86.27932964 29.82275391 87.14819336 C29.1234375 87.55553711 28.42412109 87.96288086 27.70361328 88.38256836 C27.08123779 88.74237793 26.4588623 89.1021875 25.81762695 89.47290039 C23.35446769 91.06981659 21.11678598 92.88982783 18.84814453 94.74975586 C42.09846262 96.60488865 57.51507106 95.20933446 77.74316406 82.60961914 C82.66751348 79.65996559 87.82916217 77.278776 93.03564453 74.87475586 C94.90233903 73.99104622 96.7682532 73.10568599 98.63330078 72.21850586 C101.19160352 71.00729692 103.74996194 69.796207 106.30859375 68.58569336 C108.53551489 67.52618087 110.75513748 66.45277729 112.97314453 65.37475586 C113.92290161 64.9283374 113.92290161 64.9283374 114.8918457 64.47290039 C120.15847206 61.88916312 123.61175355 58.60434233 126.84814453 53.74975586 C126.77125836 49.5979024 126.43036481 47.43184604 123.70751953 44.24194336 C120.71067209 41.62993698 117.72762404 39.91240168 114.16064453 38.24975586 C112.73958995 37.56455598 111.31905568 36.87827641 109.89892578 36.19116211 C109.10695801 35.8110498 108.31499023 35.4309375 107.49902344 35.03930664 C104.51024129 33.58537891 101.54392728 32.09080379 98.57861328 30.58959961 C87.51107986 24.98978589 76.48186106 19.47592805 65.00146484 14.76977539 C62.84814453 13.74975586 62.84814453 13.74975586 60.03076172 12.03833008 C50.26386292 6.38783165 41.59620708 5.53751038 30.40917969 5.61743164 C27.6114563 5.62472118 24.82763216 5.5360465 22.03173828 5.44116211 C8.84245897 5.26322463 0.47434686 8.62820207 -10.12464905 16.32849121 Z M-10.39404297 46.76147461 C-13.48030207 49.91590409 -15.5724308 52.43511866 -15.90185547 56.93725586 C-15.00135075 61.5148215 -13.71433862 62.83499692 -10.15185547 65.74975586 C-9.53310547 66.53350586 -8.91435547 67.31725586 -8.27685547 68.12475586 C-6.18113798 70.09219263 -6.18113798 70.09219263 -3.01513672 69.57788086 C1.34059657 68.64419486 4.84690506 67.15050113 8.78564453 65.12475586 C9.48858643 64.76720215 10.19152832 64.40964844 10.91577148 64.04125977 C16.23475828 61.25062764 20.71864186 58.14970455 24.84814453 53.74975586 C25.37021484 53.23541992 25.89228516 52.72108398 26.43017578 52.19116211 C28.61595636 49.87290998 29.79277573 47.96200293 30.59814453 44.87475586 C29.32754909 39.58060819 25.465627 35.37795361 20.86376953 32.51538086 C10.31906215 28.51002689 -3.14707708 40.25940591 -10.39404297 46.76147461 Z " fill="#0A6C9D" transform="translate(123.15185546875,35.250244140625)"/>
<path d="M0 0 C62.04 0 124.08 0 188 0 C188 1.65 188 3.3 188 5 C125.96 5 63.92 5 0 5 C0 3.35 0 1.7 0 0 Z " fill="#0C6D9E" transform="translate(39,147)"/>
<path d="M0 0 C62.04 0 124.08 0 188 0 C188 1.65 188 3.3 188 5 C125.96 5 63.92 5 0 5 C0 3.35 0 1.7 0 0 Z " fill="#0C6E9E" transform="translate(39,21)"/>
<path d="M0 0 C5.71544523 1.14308905 6.53744225 2.2149095 10.1875 6.5 C13.18326331 10.26546184 13.18326331 10.26546184 17 13 C17.25136719 12.43925781 17.50273437 11.87851563 17.76171875 11.30078125 C19.19257729 8.64218289 20.86410345 6.49353721 22.8125 4.1875 C23.47894531 3.37667969 24.14539063 2.56585938 24.83203125 1.73046875 C27 0 27 0 29.63671875 0.23828125 C30.41660156 0.48964844 31.19648438 0.74101562 32 1 C33.50057859 1 35.00129362 0.94993532 36.5 0.875 C39 1 39 1 41 3 C41.25 5.5 41.25 5.5 41 8 C39 10 39 10 36.4375 10.1875 C34 10 34 10 33 9 C32.67 16.59 32.34 24.18 32 32 C29.525 32.495 29.525 32.495 27 33 C25.82530556 30.65061112 25.79965111 29.04926795 25.68359375 26.4296875 C25.64169922 25.53378906 25.59980469 24.63789063 25.55664062 23.71484375 C25.51732422 22.77769531 25.47800781 21.84054688 25.4375 20.875 C25.39431641 19.93011719 25.35113281 18.98523438 25.30664062 18.01171875 C25.2004106 15.67465828 25.09968729 13.3373487 25 11 C22.69 13.64 20.38 16.28 18 19 C13.05872037 18.01174407 12.33319895 17.82992043 9.1875 14.4375 C8.58292969 13.79683594 7.97835937 13.15617188 7.35546875 12.49609375 C6.90816406 12.00238281 6.46085938 11.50867188 6 11 C5.97494385 11.59538574 5.9498877 12.19077148 5.92407227 12.80419922 C5.80822506 15.49469136 5.68544804 18.1848234 5.5625 20.875 C5.52318359 21.81214844 5.48386719 22.74929687 5.44335938 23.71484375 C5.40146484 24.61074219 5.35957031 25.50664062 5.31640625 26.4296875 C5.27974854 27.25710449 5.24309082 28.08452148 5.20532227 28.93701172 C5 31 5 31 4 33 C2.68 33 1.36 33 0 33 C0 22.11 0 11.22 0 0 Z " fill="#0B6C9D" transform="translate(185,161)"/>
<path d="M0 0 C2.33368543 -0.0354185 4.65454342 -0.11932601 6.984375 -0.2578125 C9.55935144 0.07154495 10.37833684 1.03963504 12 3 C12.33 2.01 12.66 1.02 13 0 C14.55460937 0.01740234 14.55460937 0.01740234 16.140625 0.03515625 C17.51041486 0.04453837 18.88020668 0.05363812 20.25 0.0625 C21.27287109 0.07506836 21.27287109 0.07506836 22.31640625 0.08789062 C25.73707058 0.10449579 28.70100904 -0.16761571 32 -1 C34.75 0.125 34.75 0.125 37 2 C37.5625 4.5 37.5625 4.5 37 7 C35.375 8.875 35.375 8.875 33 10 C30.98944339 9.73775349 28.98821313 9.39764263 27 9 C24.99124558 9.27571139 22.98821313 9.60235737 21 10 C17.18671238 10 14.15749348 9.99783921 11.1875 7.4375 C10.5996875 6.7259375 10.5996875 6.7259375 10 6 C9.67 7.32 9.34 8.64 9 10 C5.66666667 10 2.33333333 10 -1 10 C-1.65097656 10.02320313 -2.30195313 10.04640625 -2.97265625 10.0703125 C-4.98121994 10.12287305 -6.99176042 10.06375364 -9 10 C-9.66 9.34 -10.32 8.68 -11 8 C-11.33 8.66 -11.66 9.32 -12 10 C-12.66 10 -13.32 10 -14 10 C-14 7.69 -14 5.38 -14 3 C-14.66 3 -15.32 3 -16 3 C-16 5.31 -16 7.62 -16 10 C-30.3 10 -30.3 10 -35 9 C-35.66 8.34 -36.32 7.68 -37 7 C-39.10820797 7.3185177 -39.10820797 7.3185177 -41 8 C-41 8.66 -41 9.32 -41 10 C-41.99 10 -42.98 10 -44 10 C-44 6.7 -44 3.4 -44 0 C-37.33333333 0 -30.66666667 0 -24 0 C-24 2.31 -24 4.62 -24 7 C-22.35 7 -20.7 7 -19 7 C-19 4.69 -19 2.38 -19 0 C-12.43668532 -0.70051799 -6.54233931 -1.11096328 0 0 Z M-7 2 C-7 2.99 -7 3.98 -7 5 C-5.35 5 -3.7 5 -2 5 C-2 4.34 -2 3.68 -2 3 C-3.65 2.67 -5.3 2.34 -7 2 Z M-41 3 C-41 3.66 -41 4.32 -41 5 C-40.01 5 -39.02 5 -38 5 C-38 4.34 -38 3.68 -38 3 C-38.99 3 -39.98 3 -41 3 Z M-34 3 C-33.67 4.32 -33.34 5.64 -33 7 C-31.35 6.67 -29.7 6.34 -28 6 C-28 5.01 -28 4.02 -28 3 C-31.04913228 1.98888907 -31.04913228 1.98888907 -34 3 Z M-12 3 C-11.34 3.66 -10.68 4.32 -10 5 C-10 4.34 -10 3.68 -10 3 C-10.66 3 -11.32 3 -12 3 Z M3 2 C2.01 2.99 1.02 3.98 0 5 C0.66 5.66 1.32 6.32 2 7 C4.10820797 6.6814823 4.10820797 6.6814823 6 6 C6 5.01 6 4.02 6 3 C5.01 2.67 4.02 2.34 3 2 Z M23 2 C22.01 2.66 21.02 3.32 20 4 C20.33 4.99 20.66 5.98 21 7 C22.65 6.67 24.3 6.34 26 6 C26 5.01 26 4.02 26 3 C25.01 2.67 24.02 2.34 23 2 Z M31 2 C30.01 2.495 30.01 2.495 29 3 C29.33 4.32 29.66 5.64 30 7 C31.65 6.67 33.3 6.34 35 6 C34.67 5.01 34.34 4.02 34 3 C33.01 2.67 32.02 2.34 31 2 Z " fill="#0E6E9E" transform="translate(136,7)"/>
<path d="M0 0 C8.91 0 17.82 0 27 0 C27.495 1.98 27.495 1.98 28 4 C27 5 27 5 24.77514648 5.11352539 C23.81680908 5.10828857 22.85847168 5.10305176 21.87109375 5.09765625 C20.31938477 5.09282227 20.31938477 5.09282227 18.73632812 5.08789062 C17.64771484 5.07951172 16.55910156 5.07113281 15.4375 5.0625 C13.7987793 5.05573242 13.7987793 5.05573242 12.12695312 5.04882812 C9.41794568 5.0369984 6.7089662 5.01906231 4 5 C4 9.62 4 14.24 4 19 C11.59 19 19.18 19 27 19 C27.495 20.98 27.495 20.98 28 23 C27 24 27 24 24.77514648 24.11352539 C23.81680908 24.10828857 22.85847168 24.10305176 21.87109375 24.09765625 C20.31938477 24.09282227 20.31938477 24.09282227 18.73632812 24.08789062 C17.64771484 24.07951172 16.55910156 24.07113281 15.4375 24.0625 C13.7987793 24.05573242 13.7987793 24.05573242 12.12695312 24.04882812 C9.41791505 24.03699826 6.70898401 24.02051543 4 24 C4 25.32 4 26.64 4 28 C11.26 28 18.52 28 26 28 C26.495 29.98 26.495 29.98 27 32 C26 33 26 33 23.40795898 33.11352539 C22.28204346 33.10828857 21.15612793 33.10305176 19.99609375 33.09765625 C18.78115234 33.09443359 17.56621094 33.09121094 16.31445312 33.08789062 C15.03505859 33.07951172 13.75566406 33.07113281 12.4375 33.0625 C11.15423828 33.05798828 9.87097656 33.05347656 8.54882812 33.04882812 C5.36583978 33.03699545 2.18294238 33.02051068 -1 33 C-2.125 26.25 -2.125 26.25 -1 24 C-2.65 23.67 -4.3 23.34 -6 23 C-5.67 21.68 -5.34 20.36 -5 19 C-3.68 19 -2.36 19 -1 19 C-1.33 18.34 -1.66 17.68 -2 17 C-2.1229938 14.87764193 -2.17555682 12.75088537 -2.1875 10.625 C-2.20167969 9.48289063 -2.21585938 8.34078125 -2.23046875 7.1640625 C-2 4 -2 4 0 0 Z " fill="#1271A0" transform="translate(52,161)"/>
<path d="M0 0 C4.44441785 4.27270171 6.79591428 7.5101542 7.3125 13.8125 C7.23980116 18.22289643 5.87353778 20.59712632 3 24 C-2.76248831 29.56689472 -7.33602153 30.33999056 -15.2277832 30.38720703 C-21.05348815 30.26201381 -24.83964005 29.06385675 -29 25 C-32.7037937 20.72639188 -34.28159416 16.62061952 -34 11 C-31.90821617 5.07327915 -28.30028644 1.36139402 -22.9375 -1.8125 C-15.58301181 -4.6287701 -6.65634353 -4.12693299 0 0 Z M-26.9375 8.25 C-28.4173216 12.08012649 -28.43686703 15.13451532 -27 19 C-24.17196044 22.34596541 -20.80025248 24.83560569 -16.390625 25.23828125 C-9.92050491 25.3911821 -5.85491299 25.47163039 -1 21 C1.68468038 16.97297943 1.68187737 13.7315637 1 9 C-1.14838326 5.39378524 -3.14520092 3.54868244 -7 2 C-15.41981851 0.99149806 -21.2062739 1.59438259 -26.9375 8.25 Z " fill="#0B6D9D" transform="translate(176,164)"/>
<path d="M0 0 C3.1875 2.3125 3.1875 2.3125 4.1875 5.0625 C4.1875 5.805 4.1875 6.5475 4.1875 7.3125 C3.1975 7.6425 2.2075 7.9725 1.1875 8.3125 C0.23875 7.673125 -0.71 7.03375 -1.6875 6.375 C-6.85657057 3.16928885 -12.94234932 3.6302933 -18.8125 4.3125 C-19.8025 4.9725 -20.7925 5.6325 -21.8125 6.3125 C-21.4825 7.6325 -21.1525 8.9525 -20.8125 10.3125 C-16.40095265 11.71617416 -12.22301505 12.53406783 -7.625 13.125 C-3.74736544 13.75105114 -2.15161864 14.03503929 0.9375 16.5625 C2.45312024 19.89686454 2.86568179 21.69553047 2.1875 25.3125 C0.014865 27.88535724 -1.79243838 29.80246919 -4.8125 31.3125 C-7.07994274 31.46193856 -9.3528175 31.53394902 -11.625 31.5625 C-13.45998047 31.60117188 -13.45998047 31.60117188 -15.33203125 31.640625 C-19.04502584 31.29057837 -20.86993359 30.54906604 -23.8125 28.3125 C-25.125 26.125 -25.125 26.125 -25.8125 24.3125 C-23.5 23.6875 -23.5 23.6875 -20.8125 23.3125 C-19.8225 23.9725 -18.8325 24.6325 -17.8125 25.3125 C-14.90801008 25.63020556 -14.90801008 25.63020556 -11.75 25.5625 C-10.68652344 25.56765625 -9.62304688 25.5728125 -8.52734375 25.578125 C-5.66481097 25.58807135 -5.66481097 25.58807135 -3.8125 23.3125 C-3.8125 22.3225 -3.8125 21.3325 -3.8125 20.3125 C-8.38208344 19.10544022 -12.81946591 18.16592965 -17.5 17.5 C-21.18638258 16.83440315 -22.83237361 16.29886125 -26 14.125 C-28.35116462 10.4766411 -28.57400949 8.57695312 -27.8125 4.3125 C-21.55904327 -3.67802805 -8.9513273 -4.02890956 0 0 Z " fill="#0B6C9D" transform="translate(107.8125,162.6875)"/>
<path d="M0 0 C2.8125 -0.25 2.8125 -0.25 6 0 C7.875 2 7.875 2 9 4 C9.33 2.68 9.66 1.36 10 0 C19.57 0 29.14 0 39 0 C39 2.31 39 4.62 39 7 C40.32 7 41.64 7 43 7 C43 4.69 43 2.38 43 0 C45.77141717 -0.08089542 48.54047819 -0.14044062 51.3125 -0.1875 C52.09818359 -0.21263672 52.88386719 -0.23777344 53.69335938 -0.26367188 C54.45068359 -0.27333984 55.20800781 -0.28300781 55.98828125 -0.29296875 C57.03302612 -0.31653442 57.03302612 -0.31653442 58.09887695 -0.34057617 C60.5959018 0.10675267 61.48681914 0.99879227 63 3 C62.875 5.5625 62.875 5.5625 62 8 C59 10 59 10 55.9375 9.75 C53 9 53 9 51 7 C50.375 4.375 50.375 4.375 50 2 C50 4.64 50 7.28 50 10 C49.01 9.67 48.02 9.34 47 9 C46.505 8.01 46.505 8.01 46 7 C45.443125 7.515625 44.88625 8.03125 44.3125 8.5625 C42 10 42 10 39.3125 9.75 C37 9 37 9 36 8 C35.95919217 6.00041636 35.95745644 3.99954746 36 2 C35.34 2 34.68 2 34 2 C34 4.64 34 7.28 34 10 C33.401875 9.814375 32.80375 9.62875 32.1875 9.4375 C29.83591238 8.77906313 29.83591238 8.77906313 27 10 C26.67 7.69 26.34 5.38 26 3 C25.67 5.31 25.34 7.62 25 10 C24.01 10 23.02 10 22 10 C21.67 8.02 21.34 6.04 21 4 C20.67 5.65 20.34 7.3 20 9 C16.01611946 9.83383546 12.91159585 10.26862568 9 9 C7.1875 7.4375 7.1875 7.4375 6 6 C5.67 7.32 5.34 8.64 5 10 C3.35 10 1.7 10 0 10 C0 6.7 0 3.4 0 0 Z M54 3 C54.33 4.32 54.66 5.64 55 7 C56.65 6.67 58.3 6.34 60 6 C60 5.01 60 4.02 60 3 C56.95086772 1.98888907 56.95086772 1.98888907 54 3 Z M14 6 C18 7 18 7 18 7 Z " fill="#0D6D9E" transform="translate(28,7)"/>
<path d="M0 0 C1.32 0 2.64 0 4 0 C4.66 0.66 5.32 1.32 6 2 C6.66 1.01 7.32 0.02 8 -1 C8.66 -1 9.32 -1 10 -1 C10.495 0.485 10.495 0.485 11 2 C11.66 1.01 12.32 0.02 13 -1 C13.99 -1 14.98 -1 16 -1 C16.66 -0.01 17.32 0.98 18 2 C18.33 1.01 18.66 0.02 19 -1 C19.99 -1 20.98 -1 22 -1 C22 1.31 22 3.62 22 6 C23.65 6 25.3 6 27 6 C27 6.99 27 7.98 27 9 C24.03 9 21.06 9 18 9 C17.505 8.01 17.505 8.01 17 7 C15.35 7 13.7 7 12 7 C11.67 7.66 11.34 8.32 11 9 C7.73045798 8.43628586 6.17424117 7.50037734 4 5 C3.67 6.32 3.34 7.64 3 9 C2.34 9 1.68 9 1 9 C0.505 8.01 0.505 8.01 0 7 C-0.99 7.66 -1.98 8.32 -3 9 C-4.671549 8.69208308 -6.33805547 8.35613097 -8 8 C-9.671549 8.30791692 -11.33805547 8.64386903 -13 9 C-16.6875 9.1875 -16.6875 9.1875 -20 9 C-20.66 8.34 -21.32 7.68 -22 7 C-24.51378004 7.33076053 -26.70381443 7.88332083 -29.0625 8.8125 C-29.701875 8.874375 -30.34125 8.93625 -31 9 C-33.25 7.0625 -33.25 7.0625 -35 5 C-35.33 6.32 -35.66 7.64 -36 9 C-36.99 8.67 -37.98 8.34 -39 8 C-39 5.03 -39 2.06 -39 -1 C-35.16263678 -0.04065919 -34.40339772 0.23609263 -32 3 C-31.67 1.68 -31.34 0.36 -31 -1 C-28 0 -28 0 -27 2 C-26.34 1.01 -25.68 0.02 -25 -1 C-24.01 -0.67 -23.02 -0.34 -22 0 C-22 0.66 -22 1.32 -22 2 C-21.34 2 -20.68 2 -20 2 C-20 1.34 -20 0.68 -20 0 C-16.91154544 -1.54422728 -13.81256796 -1.01767465 -10.41015625 -0.9375 C-2.74069089 -1.13638403 -2.74069089 -1.13638403 0 0 Z M-18 2 C-17.67 3.32 -17.34 4.64 -17 6 C-15.35 5.67 -13.7 5.34 -12 5 C-12 4.01 -12 3.02 -12 2 C-15.04913228 0.98888907 -15.04913228 0.98888907 -18 2 Z M-5 1 C-5.99 1.495 -5.99 1.495 -7 2 C-6.67 3.32 -6.34 4.64 -6 6 C-4.35 5.67 -2.7 5.34 -1 5 C-1.33 4.01 -1.66 3.02 -2 2 C-2.99 1.67 -3.98 1.34 -5 1 Z " fill="#096B9C" transform="translate(213,8)"/>
<path d="M0 0 C2.35904399 1.78522248 3.35526125 2.97400762 4.3125 5.75 C-0.20148964 7.00388601 -0.20148964 7.00388601 -2.51953125 5.79296875 C-6.62895361 3.8160034 -11.23318129 4.31979091 -15.6875 4.75 C-19.39383414 6.29430589 -21.80229411 8.17803094 -23.6875 11.75 C-24.18250009 15.09125063 -24.41067495 17.50868821 -22.66796875 20.5 C-20.51253815 23.20893997 -18.99807057 24.64647648 -15.6875 25.75 C-13.8778182 25.86880354 -12.06353553 25.9251965 -10.25 25.9375 C-8.82880859 25.95876953 -8.82880859 25.95876953 -7.37890625 25.98046875 C-4.61302807 25.74362287 -3.10309322 25.02762639 -0.6875 23.75 C2.0625 24.125 2.0625 24.125 4.3125 24.75 C4.3125 25.74 4.3125 26.73 4.3125 27.75 C-1.48407274 32.27415434 -6.83996019 32.40663652 -14.078125 32.19921875 C-20.60794477 31.38652473 -23.91607564 28.79395118 -28.125 23.9375 C-30.34604767 19.40656276 -31.55400118 15.55338618 -30.0234375 10.6015625 C-27.63926196 5.38738998 -24.66418884 2.17654465 -19.4296875 -0.33203125 C-13.24504502 -2.40238877 -6.12079854 -2.07484696 0 0 Z " fill="#0C6D9D" transform="translate(141.6875,162.25)"/>
<path d="M0 0 C1.98 0 3.96 0 6 0 C5.01 0.495 5.01 0.495 4 1 C4.350625 2.11375 4.70125 3.2275 5.0625 4.375 C6 8 6 8 5 10 C3.35 10 1.7 10 0 10 C0 6.7 0 3.4 0 0 Z " fill="#227AA6" transform="translate(28,7)"/>
<path d="M0 0 C5.07865169 1.26966292 5.07865169 1.26966292 7 4 C6.6875 6.1875 6.6875 6.1875 6 8 C5.34 7.34 4.68 6.68 4 6 C3.67 7.32 3.34 8.64 3 10 C2.01 9.67 1.02 9.34 0 9 C0 6.03 0 3.06 0 0 Z " fill="#277DA8" transform="translate(174,7)"/>
<path d="M0 0 C2.31 0.33 4.62 0.66 7 1 C7.33 2.32 7.66 3.64 8 5 C5.36 5 2.72 5 0 5 C-0.33 4.01 -0.66 3.02 -1 2 C-0.67 1.34 -0.34 0.68 0 0 Z " fill="#076A9C" transform="translate(127,12)"/>
<path d="M0 0 C1.32 0.33 2.64 0.66 4 1 C3.01 1 2.02 1 1 1 C2.32 1.66 3.64 2.32 5 3 C4.34 3 3.68 3 3 3 C3 3.66 3 4.32 3 5 C3.66 5.33 4.32 5.66 5 6 C5 6.66 5 7.32 5 8 C4.34 8 3.68 8 3 8 C3 8.66 3 9.32 3 10 C2.01 10 1.02 10 0 10 C0 6.7 0 3.4 0 0 Z " fill="#1874A2" transform="translate(92,7)"/>
<path d="M0 0 C1.32 0.33 2.64 0.66 4 1 C-0.61534219 5.06478107 -5.25585812 9.08608295 -10 13 C-8.48446596 9.52224821 -6.4226544 7.0442016 -3.875 4.25 C-3.15054688 3.45078125 -2.42609375 2.6515625 -1.6796875 1.828125 C-0.84824219 0.92320312 -0.84824219 0.92320312 0 0 Z " fill="#1E78A5" transform="translate(212,161)"/>
<path d="M0 0 C1.32 0 2.64 0 4 0 C4 2.97 4 5.94 4 9 C3.01 9 2.02 9 1 9 C0.67 6.03 0.34 3.06 0 0 Z " fill="#096B9D" transform="translate(49,8)"/>
<path d="M0 0 C0.66 0.33 1.32 0.66 2 1 C-1.3 4.3 -4.6 7.6 -8 11 C-8 7.0234755 -6.61988497 5.9109833 -4 3 C-1.75 1.1875 -1.75 1.1875 0 0 Z " fill="#1C77A4" transform="translate(18,71)"/>
<path d="M0 0 C0.99 0 1.98 0 3 0 C3 2.64 3 5.28 3 8 C2.01 8 1.02 8 0 8 C0 5.36 0 2.72 0 0 Z " fill="#05699B" transform="translate(28,8)"/>
<path d="M0 0 C2.64 0 5.28 0 8 0 C8 0.99 8 1.98 8 3 C5.6875 3.625 5.6875 3.625 3 4 C2.01 3.34 1.02 2.68 0 2 C0 1.34 0 0.68 0 0 Z " fill="#0A6C9D" transform="translate(135,13)"/>
<path d="M0 0 C1.98 0 3.96 0 6 0 C4.27239967 3.7020007 2.92824652 6.07175348 0 9 C0 6.03 0 3.06 0 0 Z " fill="#2079A6" transform="translate(201,7)"/>
<path d="M0 0 C0.99 0 1.98 0 3 0 C3 2.31 3 4.62 3 7 C1.68 6.67 0.36 6.34 -1 6 C-0.67 4.02 -0.34 2.04 0 0 Z " fill="#1572A1" transform="translate(232,7)"/>
<path d="M0 0 C0.66 0.33 1.32 0.66 2 1 C-0.64 3.64 -3.28 6.28 -6 9 C-6.66 8.67 -7.32 8.34 -8 8 C-5.58443874 4.80800833 -3.31996462 2.25283313 0 0 Z " fill="#227AA6" transform="translate(67,73)"/>
<path d="M0 0 C0.99 0.33 1.98 0.66 3 1 C0.69 3.31 -1.62 5.62 -4 8 C-4.33 7.34 -4.66 6.68 -5 6 C-3.35 4.02 -1.7 2.04 0 0 Z " fill="#1A75A3" transform="translate(118,164)"/>
<path d="M0 0 C0.66 0.33 1.32 0.66 2 1 C1.34 2.65 0.68 4.3 0 6 C-0.66 6 -1.32 6 -2 6 C-2 5.01 -2 4.02 -2 3 C-2.99 2.67 -3.98 2.34 -5 2 C-2.625 0.9375 -2.625 0.9375 0 0 Z " fill="#1975A3" transform="translate(110,7)"/>
</svg>
