<svg viewBox="0 0 300 295" xmlns="http://www.w3.org/2000/svg" fill="currentColor">
<path d="M0 0 C1.05767578 0.06380859 1.05767578 0.06380859 2.13671875 0.12890625 C38.98157879 2.56854893 72.63501063 19.69924648 97.52734375 46.74609375 C124.49694758 78.64511551 133.64645977 115.72914065 130.80517578 156.81738281 C128.48830105 180.49783249 117.99566786 204.65109693 103 223 C102.55930176 223.54462891 102.11860352 224.08925781 101.66455078 224.65039062 C93.77987577 234.33735336 85.09976156 244.95332682 74 251 C70.92578125 251.2265625 70.92578125 251.2265625 68 250 C65.96689951 247.6758017 64.60255368 245.10768543 63.1875 242.375 C62.79369141 241.67503906 62.39988281 240.97507813 61.99414062 240.25390625 C59.27131635 235.21925004 57.73811587 230.65328364 58.15625 224.8203125 C59.39444275 222.14902628 61.2507819 220.75629045 63.5 218.875 C85.08780512 199.98950904 97.60281453 174.55906146 100 146 C101.8005465 116.78060503 92.04767469 89.08939638 73 67 C57.83713319 49.85718859 38.09239014 39.26519978 16 34 C15.24364258 33.81453613 14.48728516 33.62907227 13.70800781 33.43798828 C-3.1023079 29.65853302 -21.61564478 30.88111478 -38 36 C-38.6820752 36.20898926 -39.36415039 36.41797852 -40.06689453 36.63330078 C-69.04257615 45.79326644 -89.96737605 66.42800741 -104.00146484 92.88818359 C-110.14076716 105.01440621 -113.46031996 119.41414154 -114 133 C-114.03996094 133.81855469 -114.07992187 134.63710937 -114.12109375 135.48046875 C-114.83841039 164.04654914 -103.893263 190.850825 -85 212 C-84.4740625 212.6084375 -83.948125 213.216875 -83.40625 213.84375 C-80.60708154 216.87142201 -77.62489766 219.29758052 -74.23046875 221.625 C-73.54807129 222.09873047 -72.86567383 222.57246094 -72.16259766 223.06054688 C-70.78289648 224.00622441 -69.3881061 224.93032302 -67.97802734 225.83007812 C-64.58102281 228.14881758 -63.18946042 229.15695125 -62.26171875 233.28515625 C-63.22697397 238.14207535 -65.18945361 241.74064939 -67.75 245.9375 C-68.41515625 247.10635742 -68.41515625 247.10635742 -69.09375 248.29882812 C-71.62713253 252.54969499 -71.62713253 252.54969499 -73 254 C-74.32 254 -75.64 254 -77 254 C-77 254.66 -77 255.32 -77 256 C-81.59552826 255.47894568 -84.71072997 253.45805251 -88.375 250.8125 C-88.94500732 250.40829834 -89.51501465 250.00409668 -90.10229492 249.58764648 C-94.28198081 246.59263157 -98.27855304 243.54835641 -102 240 C-102 239.34 -102 238.68 -102 238 C-103.32 237.34 -104.64 236.68 -106 236 C-106 235.34 -106 234.68 -106 234 C-106.66 234 -107.32 234 -108 234 C-127.42323946 213.50909833 -138.94179426 187.48875556 -144 160 C-144.19335938 158.95070312 -144.38671875 157.90140625 -144.5859375 156.8203125 C-148.65664571 119.26226885 -139.44012836 82.32331292 -115.8125 52.625 C-114.54466085 51.08087003 -113.27387407 49.53915507 -112 48 C-111.30519531 47.12730469 -110.61039063 46.25460938 -109.89453125 45.35546875 C-108.04726657 43.05876648 -106.19113085 40.97201777 -104 39 C-103.34 39 -102.68 39 -102 39 C-102 38.34 -102 37.68 -102 37 C-75.52827951 11.46387046 -36.5363227 -2.28352017 0 0 Z " fill="#711B46" transform="translate(157,9)"/>
<path d="M0 0 C0.92554688 0.30035156 1.85109375 0.60070312 2.8046875 0.91015625 C12.12205017 4.26266525 21.72217002 10.26435793 29 17 C29 17.66 29 18.32 29 19 C29.5775 19.226875 30.155 19.45375 30.75 19.6875 C33.5663661 21.33038023 35.08077114 23.39533227 37 26 C35.49203266 29.77839007 33.3019872 31.64563017 30.125 34.125 C29.26132813 34.80820313 28.39765625 35.49140625 27.5078125 36.1953125 C23.87056842 38.81276852 20.52880288 40.65163055 16 41 C14.125 39.8125 14.125 39.8125 13 38 C13.28774151 35.02667109 14.60076591 32.61190363 16 30 C14.515 29.01 14.515 29.01 13 28 C12.62875 28.9590625 12.62875 28.9590625 12.25 29.9375 C11 32 11 32 9.0625 32.875 C7 33 7 33 4 31 C4.4979837 27.26512223 4.87491756 25.18762365 7 22 C5.35 21.67 3.7 21.34 2 21 C1.505 23.475 1.505 23.475 1 26 C-2.09319586 26.85329541 -4.79336115 27 -8 27 C-8 27.99 -8 28.98 -8 30 C-3.545 29.505 -3.545 29.505 1 29 C1.99 31.97 1.99 31.97 3 35 C-1.75 38 -1.75 38 -4 38 C-4 38.99 -4 39.98 -4 41 C-1.36 41.33 1.28 41.66 4 42 C4.04254356 43.99954746 4.04080783 46.00041636 4 48 C3 49 3 49 1.15234375 49.09765625 C-0.8984375 49.06510417 -2.94921875 49.03255208 -5 49 C-3.77065985 52.68802044 -2.06140622 53.72356973 1 56 C0.25 58.4375 0.25 58.4375 -1 61 C-2.8125 61.9375 -2.8125 61.9375 -5 62 C-7.75 61.0625 -7.75 61.0625 -10 60 C-9.01 64.455 -9.01 64.455 -8 69 C-11 71 -11 71 -15 71 C-15 72.65 -15 74.3 -15 76 C-14.01 76 -13.02 76 -12 76 C-10.29467677 74.05990478 -10.29467677 74.05990478 -9 72 C-6.03824877 72.61277612 -4.61941217 73.25372522 -2 75 C-2.4640625 76.1446875 -2.4640625 76.1446875 -2.9375 77.3125 C-3.67893593 79.18789677 -4.36228217 81.08684652 -5 83 C-4.443125 82.855625 -3.88625 82.71125 -3.3125 82.5625 C-0.88615805 81.97230872 1.54906345 81.476571 4 81 C5.485 82.98 5.485 82.98 7 85 C5.69267618 87.91633776 4.24135944 89.75864056 2 92 C2 92.66 2 93.32 2 94 C6.455 93.505 6.455 93.505 11 93 C11.495 96.465 11.495 96.465 12 100 C9.35261084 101.4606285 8.10551666 102 5 102 C5 103.32 5 104.64 5 106 C7.31 106 9.62 106 12 106 C13.09658936 109.28976808 12.79953138 110.71303767 12 114 C9.36 114 6.72 114 4 114 C5.25618074 117.76854223 6.66014706 118.07958456 10 120 C10.33 120.66 10.66 121.32 11 122 C12.32 121.34 13.64 120.68 15 120 C17 121.375 17 121.375 19 123 C19 123.66 19 124.32 19 125 C19.99 124.34 20.98 123.68 22 123 C21.24849977 119.72226496 21.24849977 119.72226496 18 118 C18.47933884 113.44628099 18.47933884 113.44628099 20.75 111.5 C23 111 23 111 25.3125 112.1875 C26.199375 112.785625 27.08625 113.38375 28 114 C29.093125 114.433125 30.18625 114.86625 31.3125 115.3125 C35.73400214 117.12395242 39.29787808 120.02868656 43 123 C37.46544553 138.60744361 21.12675009 149.4938319 6.9609375 156.50390625 C-14.71666466 166.08437686 -37.93107766 165.90841642 -59.99755859 157.7890625 C-71.52650461 153.24607865 -80.3899655 146.82623921 -89 138 C-89.73863281 137.27039063 -90.47726563 136.54078125 -91.23828125 135.7890625 C-107.35890201 118.94849168 -112.72380353 96.49530104 -112.3046875 73.8359375 C-111.43165167 51.63485291 -100.69266967 31.70394784 -84.8203125 16.4140625 C-61.35683759 -3.66963209 -29.27829089 -10.00168566 0 0 Z M-9 15 C-9 15.99 -9 16.98 -9 18 C-7.68 18.33 -6.36 18.66 -5 19 C-5.33 18.01 -5.66 17.02 -6 16 C-6.99 15.67 -7.98 15.34 -9 15 Z M-60 21 C-58.6446674 23.53673288 -58.6446674 23.53673288 -57 26 C-56.34 26 -55.68 26 -55 26 C-55 25.34 -55 24.68 -55 24 C-54.34 23.67 -53.68 23.34 -53 23 C-53.66 21.35 -54.32 19.7 -55 18 C-56.96822886 18 -58.50528545 19.84280164 -60 21 Z M-49 24 C-48.67 24.99 -48.34 25.98 -48 27 C-47.01 26.67 -46.02 26.34 -45 26 C-45 25.34 -45 24.68 -45 24 C-46.32 24 -47.64 24 -49 24 Z M-67 25 C-67.99 25.66 -68.98 26.32 -70 27 C-69.5359375 27.86625 -69.5359375 27.86625 -69.0625 28.75 C-68.0549144 30.88371067 -67.31180128 32.6614904 -67 35 C-67.66 35.66 -68.32 36.32 -69 37 C-72.37991574 36.6442194 -75.04288438 35.64284201 -78 34 C-78.33 35.32 -78.66 36.64 -79 38 C-77.68 38.99 -76.36 39.98 -75 41 C-76.75 45.875 -76.75 45.875 -79 47 C-81.03144641 46.06553465 -83.03533587 45.06775224 -85 44 C-85.66 45.32 -86.32 46.64 -87 48 C-85.35 48.99 -83.7 49.98 -82 51 C-82.33 52.98 -82.66 54.96 -83 57 C-85.64 56.67 -88.28 56.34 -91 56 C-91.33 57.32 -91.66 58.64 -92 60 C-89.69 60.66 -87.38 61.32 -85 62 C-85.33 64.31 -85.66 66.62 -86 69 C-89.96 68.505 -89.96 68.505 -94 68 C-94.33 69.65 -94.66 71.3 -95 73 C-92.36 73.33 -89.72 73.66 -87 74 C-87 76.31 -87 78.62 -87 81 C-89.64 81 -92.28 81 -95 81 C-95 82.65 -95 84.3 -95 86 C-92.36 85.67 -89.72 85.34 -87 85 C-87 87.31 -87 89.62 -87 92 C-89.97 92.99 -89.97 92.99 -93 94 C-92.67 95.65 -92.34 97.3 -92 99 C-88.04 98.01 -88.04 98.01 -84 97 C-83.01 100.465 -83.01 100.465 -82 104 C-85.465 104.99 -85.465 104.99 -89 106 C-88.34 107.65 -87.68 109.3 -87 111 C-86.4225 110.67 -85.845 110.34 -85.25 110 C-83 109 -83 109 -79 109 C-78.67 110.65 -78.34 112.3 -78 114 C-79.32 114.99 -80.64 115.98 -82 117 C-81.34 118.65 -80.68 120.3 -80 122 C-79.01 121.505 -79.01 121.505 -78 121 C-78 120.34 -78 119.68 -78 119 C-75.6875 118.3125 -75.6875 118.3125 -73 118 C-71.125 119.125 -71.125 119.125 -70 121 C-70.3125 123.6875 -70.3125 123.6875 -71 126 C-72.485 126.495 -72.485 126.495 -74 127 C-72.68 128.32 -71.36 129.64 -70 131 C-68.68 129.35 -67.36 127.7 -66 126 C-65.443125 126.268125 -64.88625 126.53625 -64.3125 126.8125 C-63.1678125 126.9053125 -63.1678125 126.9053125 -62 127 C-59.22877725 124.64573501 -59.22877725 124.64573501 -57 122 C-57.33 121.34 -57.66 120.68 -58 120 C-62.455 120.495 -62.455 120.495 -67 121 C-67.33 118.69 -67.66 116.38 -68 114 C-64.535 113.01 -64.535 113.01 -61 112 C-61 110.68 -61 109.36 -61 108 C-64.465 107.505 -64.465 107.505 -68 107 C-67.67 105.02 -67.34 103.04 -67 101 C-65.02 101 -63.04 101 -61 101 C-60.505 99.02 -60.505 99.02 -60 97 C-61.65 96.01 -63.3 95.02 -65 94 C-64.67 91.69 -64.34 89.38 -64 87 C-61.36 87.99 -58.72 88.98 -56 90 C-55.67 88.68 -55.34 87.36 -55 86 C-56.3516367 83.75244247 -56.3516367 83.75244247 -58 82 C-57.34 80.68 -56.68 79.36 -56 78 C-52.62537285 78.54723683 -50.91765 79.0549 -48 81 C-47.34 80.01 -46.68 79.02 -46 78 C-46.80648688 74.34329469 -46.80648688 74.34329469 -48 71 C-45.69 70.67 -43.38 70.34 -41 70 C-40.67 68.02 -40.34 66.04 -40 64 C-42.86724686 64.57344937 -43.8614515 64.8614515 -46 67 C-48.125 66.625 -48.125 66.625 -50 66 C-50.6875 64.3125 -50.6875 64.3125 -51 62 C-49.5625 59.25 -49.5625 59.25 -48 57 C-48.66 56.34 -49.32 55.68 -50 55 C-52.00693006 55.19782865 -52.00693006 55.19782865 -54.125 55.875 C-54.84945312 56.07867187 -55.57390625 56.28234375 -56.3203125 56.4921875 C-56.87460938 56.65976563 -57.42890625 56.82734375 -58 57 C-58.495 53.535 -58.495 53.535 -59 50 C-56.69 49.34 -54.38 48.68 -52 48 C-52 47.01 -52 46.02 -52 45 C-54.64 44.67 -57.28 44.34 -60 44 C-60 41.69 -60 39.38 -60 37 C-57.36 37 -54.72 37 -52 37 C-52 35.68 -52 34.36 -52 33 C-52.804375 32.731875 -53.60875 32.46375 -54.4375 32.1875 C-55.7059375 31.5996875 -55.7059375 31.5996875 -57 31 C-57.495 29.515 -57.495 29.515 -58 28 C-59.65 28.66 -61.3 29.32 -63 30 C-64.32 28.35 -65.64 26.7 -67 25 Z M-34 28 C-34.22867401 30.96532836 -34.22867401 30.96532836 -32.875 33.1875 C-31.06427177 35.28085041 -31.06427177 35.28085041 -28 35.5 C-24.93400154 35.27359509 -24.93400154 35.27359509 -23.0625 33.1875 C-21.64155982 30.91043228 -21.64155982 30.91043228 -23 28 C-26.63 28 -30.26 28 -34 28 Z M-15 36 C-17.6450037 36.91783124 -17.6450037 36.91783124 -20 39 C-20.46837899 41.79374292 -20.23424505 44.14221036 -20 47 C-18.02 47.99 -16.04 48.98 -14 50 C-12.76112452 47.52224905 -12.83258331 45.76346293 -12.8125 43 C-12.79123047 41.6696875 -12.79123047 41.6696875 -12.76953125 40.3125 C-12.77286874 37.80480016 -12.77286874 37.80480016 -15 36 Z M-43 37 C-44.17287572 43.68531992 -44.17287572 43.68531992 -42 50 C-39.3549963 49.08216876 -39.3549963 49.08216876 -37 47 C-36.32738658 44.06332174 -36.60930088 42.07675557 -37 39 C-39.81509993 36.7226499 -39.81509993 36.7226499 -43 37 Z M-29 40 C-29.66 41.32 -30.32 42.64 -31 44 C-29.02 44.99 -29.02 44.99 -27 46 C-26.67 44.35 -26.34 42.7 -26 41 C-26.99 40.67 -27.98 40.34 -29 40 Z M-32 51 C-32.99 52.98 -33.98 54.96 -35 57 C-29.85910687 58.85072153 -27.04468729 59.21474076 -22 57 C-23.11854586 53.27385847 -23.11854586 53.27385847 -26 51 C-27.99960012 50.960008 -30.00047242 50.95653201 -32 51 Z M-19 65 C-19.66 65.66 -20.32 66.32 -21 67 C-20.01 67 -19.02 67 -18 67 C-18.33 66.34 -18.66 65.68 -19 65 Z M-39 73 C-38.67 73.99 -38.34 74.98 -38 76 C-37.01 75.34 -36.02 74.68 -35 74 C-36.32 73.67 -37.64 73.34 -39 73 Z M-37 87 C-37 91.27674069 -35.91013636 92.88199675 -33 96 C-29.45983252 97.02085774 -26.52863532 97.08310292 -23 96 C-20.66812541 93.61125042 -19.29719755 91.05865528 -18 88 C-24.04469551 83.97020299 -30.4060857 84.61496717 -37 87 Z M-10 97 C-15.10195645 99.60455061 -15.10195645 99.60455061 -17.74609375 104.3828125 C-17.95476339 107.23605038 -17.88928065 109.27406434 -17 112 C-14.6065356 114.3262613 -12.05853484 115.70285353 -9 117 C-5.88608701 111.2704001 -5.23878202 106.37605497 -7 100 C-8.45539978 98.21946521 -8.45539978 98.21946521 -10 97 Z M-48 98 C-50.37564257 103.31025986 -50.43294755 108.41246628 -49 114 C-47.54979259 115.78582865 -47.54979259 115.78582865 -46 117 C-42.12565496 114.92512955 -42.12565496 114.92512955 -39 112 C-38.01796075 108.48622951 -38.03902934 105.51762718 -39 102 C-42.11800325 99.08986364 -43.72325931 98 -48 98 Z M-30 104 C-30.33 105.32 -30.66 106.64 -31 108 C-29.02 108.99 -29.02 108.99 -27 110 C-26.34 109.34 -25.68 108.68 -25 108 C-25.3185177 105.89179203 -25.3185177 105.89179203 -26 104 C-27.32 104 -28.64 104 -30 104 Z M-35.6875 120.75 C-37.05373867 124.13306719 -37.05458408 124.74423707 -36 128 C-27.33644448 129.22504927 -27.33644448 129.22504927 -19 127 C-19 122.72325931 -20.08986364 121.11800325 -23 118 C-28.24690903 116.66648325 -31.85289837 116.82622159 -35.6875 120.75 Z M9 123 C8.67 123.99 8.34 124.98 8 126 C5.36 125.67 2.72 125.34 0 125 C0 126.32 0 127.64 0 129 C2.6666419 130.33332095 4.16680303 129.67102033 7 129 C7.99 130.65 8.98 132.3 10 134 C11.32 132.68 12.64 131.36 14 130 C13.319375 129.38125 13.319375 129.38125 12.625 128.75 C10.94049626 126.93591905 10.00734029 125.24714373 9 123 Z M-54 130 C-54.33 130.66 -54.66 131.32 -55 132 C-53.68 132.33 -52.36 132.66 -51 133 C-51 132.01 -51 131.02 -51 130 C-51.99 130 -52.98 130 -54 130 Z M-61 132 C-62.485 133.98 -62.485 133.98 -64 136 C-61.525 136.99 -61.525 136.99 -59 138 C-58.34 136.35 -57.68 134.7 -57 133 C-58.32 132.67 -59.64 132.34 -61 132 Z M0 136 C-0.66 137.32 -1.32 138.64 -2 140 C-0.35 139.34 1.3 138.68 3 138 C2.67 137.34 2.34 136.68 2 136 C1.34 136 0.68 136 0 136 Z M-52 140 C-52 140.66 -52 141.32 -52 142 C-51.34 141.67 -50.68 141.34 -50 141 C-50.66 140.67 -51.32 140.34 -52 140 Z " fill="#711B46" transform="translate(178,66)"/>
<path d="M0 0 C6.35446239 5.94004093 12.75465413 15.0930826 13.1953125 23.90625 C13.13085938 24.9271875 13.06640625 25.948125 13 27 C-5.35580904 33.86985161 -23.29658848 37.69541452 -43 37 C-44.54867002 33.56731802 -45.23731123 30.94992634 -45.125 27.1875 C-45.10695312 26.39730469 -45.08890625 25.60710937 -45.0703125 24.79296875 C-45.04710937 24.20128906 -45.02390625 23.60960937 -45 23 C-43.95199219 22.97421875 -42.90398437 22.9484375 -41.82421875 22.921875 C-40.44527098 22.86559142 -39.06636635 22.80824412 -37.6875 22.75 C-36.99720703 22.73582031 -36.30691406 22.72164063 -35.59570312 22.70703125 C-32.34704312 22.55009115 -30.45405728 22.41741093 -28.015625 20.17578125 C-26.4453631 16.81179711 -27.04193178 14.51291679 -28 11 C-29.9568288 9.17662247 -29.9568288 9.17662247 -32 8 C-32 7.34 -32 6.68 -32 6 C-31.39526855 5.88930176 -30.79053711 5.77860352 -30.16748047 5.66455078 C-27.40248208 5.15580802 -24.63875332 4.64046193 -21.875 4.125 C-20.92367187 3.95097656 -19.97234375 3.77695313 -18.9921875 3.59765625 C-13.12583884 2.49771588 -5.74860554 -1.29343625 0 0 Z " fill="#711B46" transform="translate(189,249)"/>
<path d="M0 0 C5.51298487 1.67075171 11.02602316 3.2038318 16.625 4.5625 C16.625 6.2125 16.625 7.8625 16.625 9.5625 C17.285 9.5625 17.945 9.5625 18.625 9.5625 C18.625 16.8225 18.625 24.0825 18.625 31.5625 C17.635 31.5625 16.645 31.5625 15.625 31.5625 C15.625 32.5525 15.625 33.5425 15.625 34.5625 C9.16224222 34.78092323 3.71440327 34.17298975 -2.5 32.4375 C-3.7219104 32.10081299 -3.7219104 32.10081299 -4.96850586 31.75732422 C-10.34609388 30.23165578 -15.68328275 28.59706378 -20.9375 26.6875 C-22.13503906 26.25695312 -23.33257812 25.82640625 -24.56640625 25.3828125 C-27.375 23.5625 -27.375 23.5625 -29.09765625 20.44921875 C-29.49686841 14.85462587 -27.26962009 11.81289883 -24.25 7.25 C-23.74984375 6.43982422 -23.2496875 5.62964844 -22.734375 4.79492188 C-16.23699887 -5.41888537 -10.51928928 -3.21006781 0 0 Z " fill="#711B46" transform="translate(118.375,249.4375)"/>
<path d="M0 0 C1.60875 -0.04125 3.2175 -0.0825 4.875 -0.125 C5.77992188 -0.14820313 6.68484375 -0.17140625 7.6171875 -0.1953125 C10 0 10 0 12 2 C12.25 5 12.25 5 12 8 C10 10 10 10 7.6171875 10.1953125 C6.71226562 10.17210937 5.80734375 10.14890625 4.875 10.125 C2.461875 10.063125 2.461875 10.063125 0 10 C0 6.7 0 3.4 0 0 Z " fill="#711B46" transform="translate(144,259)"/>
<path d="M0 0 C1.44375 0.144375 2.8875 0.28875 4.375 0.4375 C5.59316406 0.55931641 5.59316406 0.55931641 6.8359375 0.68359375 C9 1 9 1 11 2 C10.67 4.64 10.34 7.28 10 10 C8.35 9.67 6.7 9.34 5 9 C5 9.99 5 10.98 5 12 C2.69 11.34 0.38 10.68 -2 10 C-1.34 6.7 -0.68 3.4 0 0 Z " fill="#711B46" transform="translate(166,46)"/>
<path d="M0 0 C6.30214697 0.33169195 10.85216936 3.67323988 16 7 C15 10 15 10 13.1875 11.25 C10.66056586 12.11637742 9.47778006 11.88492145 7 11 C7 10.34 7 9.68 7 9 C6.401875 8.95875 5.80375 8.9175 5.1875 8.875 C3 8 3 8 1.25 5.0625 C0 2 0 2 0 0 Z " fill="#711B46" transform="translate(204,258)"/>
<path d="M0 0 C4.23098861 2.11549431 6.58765502 4.95931982 8.3125 9.3125 C8.539375 10.199375 8.76625 11.08625 9 12 C4.85701333 11.40165275 1.81805623 9.99335715 -1.8125 7.9375 C-2.78832031 7.38964844 -3.76414063 6.84179688 -4.76953125 6.27734375 C-5.87361328 5.64505859 -5.87361328 5.64505859 -7 5 C-7 4.34 -7 3.68 -7 3 C-4.65506438 1.24129829 -2.98787084 0 0 0 Z " fill="#711B46" transform="translate(204,241)"/>
<path d="M0 0 C3.07538384 0.21209544 4.07072616 1.06881465 6.3125 3.25 C8 6 8 6 7.75 8.8125 C7.5025 9.534375 7.255 10.25625 7 11 C5.68 11.33 4.36 11.66 3 12 C-0.58637057 8.23868452 -0.58637057 8.23868452 -2 6 C-1.81395349 1.81395349 -1.81395349 1.81395349 0 0 Z " fill="#711B46" transform="translate(206,216)"/>
<path d="M0 0 C1.65 0.33 3.3 0.66 5 1 C5.75 2.75 5.75 2.75 6 5 C4.125 7.0625 4.125 7.0625 2 9 C1.67 9.99 1.34 10.98 1 12 C0.01 12 -0.98 12 -2 12 C-2 11.34 -2 10.68 -2 10 C-2.99 9.67 -3.98 9.34 -5 9 C-3.7508258 5.54074837 -2.32472205 2.85306797 0 0 Z " fill="#711B46" transform="translate(89,215)"/>
<path d="M0 0 C2.125 0.375 2.125 0.375 4 1 C4 1.66 4 2.32 4 3 C4.66 3 5.32 3 6 3 C4.50871999 6.79598549 2.34266559 8.71720399 -1 11 C-1.99 11 -2.98 11 -4 11 C-4 10.01 -4 9.02 -4 8 C-4.99 7.67 -5.98 7.34 -7 7 C-4.66666667 4.66666667 -2.33333333 2.33333333 0 0 Z " fill="#711B46" transform="translate(73,198)"/>
<path d="M0 0 C1.98 0 3.96 0 6 0 C6 3.63 6 7.26 6 11 C1 12 1 12 -1 11 C-1.14285714 3.57142857 -1.14285714 3.57142857 0 0 Z " fill="#711B46" transform="translate(133,235)"/>
<path d="M0 0 C3.17119503 1.09351553 4.00783543 2.0126988 5.8125 4.9375 C7 8 7 8 6 11 C4.02 11.33 2.04 11.66 0 12 C-0.433125 10.88625 -0.433125 10.88625 -0.875 9.75 C-1.82302644 7.43260203 -2.84845911 5.22082885 -4 3 C-2.68 2.01 -1.36 1.02 0 0 Z " fill="#711B46" transform="translate(196,223)"/>
<path d="M0 0 C0.66666667 1.66666667 1.33333333 3.33333333 2 5 C2.99 5.33 3.98 5.66 5 6 C5 6.99 5 7.98 5 9 C2.49698229 10.18198059 0.60398817 11.0172568 -2.1875 10.9375 C-4 10 -4 10 -5.25 7.75 C-5.99453489 5.02003872 -6.1607411 2.81296916 -6 0 C-3 -1 -3 -1 0 0 Z " fill="#711B46" transform="translate(116,52)"/>
<path d="M0 0 C1.26237731 2.52475462 1.09856404 4.31200466 1.0625 7.125 C1.05347656 8.03507813 1.04445312 8.94515625 1.03515625 9.8828125 C1.02355469 10.58148438 1.01195312 11.28015625 1 12 C-0.98 12 -2.96 12 -5 12 C-6.28317892 8.15046324 -6.06643637 5.05261865 -6 1 C-3 0 -3 0 0 0 Z " fill="#711B46" transform="translate(162,235)"/>
<path d="M0 0 C1.32 0.33 2.64 0.66 4 1 C4 1.66 4 2.32 4 3 C6.475 3.99 6.475 3.99 9 5 C8.67 6.65 8.34 8.3 8 10 C4.25 11.125 4.25 11.125 2 10 C2 9.34 2 8.68 2 8 C1.0409375 7.566875 1.0409375 7.566875 0.0625 7.125 C-2 6 -2 6 -3 4 C-2.01 2.68 -1.02 1.36 0 0 Z " fill="#711B46" transform="translate(224,198)"/>
<path d="M0 0 C2.16874252 0.50603992 3.99967627 0.99983813 6 2 C5.625 4.4375 5.625 4.4375 5 7 C4.01 7.495 4.01 7.495 3 8 C2.34786708 10.02463255 2.34786708 10.02463255 2 12 C-0.97 11.505 -0.97 11.505 -4 11 C-3.48964169 6.6109185 -2.47785723 3.66291938 0 0 Z " fill="#711B46" transform="translate(100,222)"/>
<path d="M0 0 C2.31 0.33 4.62 0.66 7 1 C6.34 4.3 5.68 7.6 5 11 C1.86650268 12.04449911 1.01031744 11.93423645 -2 11 C-1.855625 10.29875 -1.71125 9.5975 -1.5625 8.875 C-0.98521625 5.92443859 -0.48304859 2.96729849 0 0 Z " fill="#711B46" transform="translate(120,232)"/>
<path d="M0 0 C3 6.5 3 6.5 3 11 C1.02 11.33 -0.96 11.66 -3 12 C-6 5.5 -6 5.5 -6 1 C-4 0 -4 0 0 0 Z " fill="#711B46" transform="translate(187,229)"/>
<path d="M0 0 C1.98 0 3.96 0 6 0 C5.938125 0.78375 5.87625 1.5675 5.8125 2.375 C5.874375 3.24125 5.93625 4.1075 6 5 C6.99 5.66 7.98 6.32 9 7 C9 8.32 9 9.64 9 11 C6.36 11 3.72 11 1 11 C-0.20272819 8.59454362 -0.10071472 7.05003047 -0.0625 4.375 C-0.05347656 3.55773438 -0.04445312 2.74046875 -0.03515625 1.8984375 C-0.02355469 1.27195313 -0.01195312 0.64546875 0 0 Z " fill="#711B46" transform="translate(130,46)"/>
<path d="M0 0 C2.00720923 0.28674418 4.0085944 0.61866701 6 1 C5.34 4.3 4.68 7.6 4 11 C1 12 1 12 -1.1875 11.0625 C-1.785625 10.711875 -2.38375 10.36125 -3 10 C-2.69201674 8.51988629 -2.378482 7.04092675 -2.0625 5.5625 C-1.88847656 4.73878906 -1.71445313 3.91507813 -1.53515625 3.06640625 C-1 1 -1 1 0 0 Z " fill="#711B46" transform="translate(179,49)"/>
<path d="M0 0 C1.32 0 2.64 0 4 0 C4.33 2.31 4.66 4.62 5 7 C6.32 7.33 7.64 7.66 9 8 C9 8.66 9 9.32 9 10 C6.09399739 11.25664978 4.20395416 12 1 12 C-0.41404314 8.19975907 -1.34892324 5.07077118 -1 1 C-0.67 0.67 -0.34 0.34 0 0 Z " fill="#711B46" transform="translate(121,48)"/>
<path d="M0 0 C-0.53115106 4.51478398 -2.36620292 7.34666857 -5 11 C-5.99 10.67 -6.98 10.34 -8 10 C-8 9.34 -8 8.68 -8 8 C-8.66 8 -9.32 8 -10 8 C-10 6.68 -10 5.36 -10 4 C-6.37313728 1.03256687 -4.7546322 0 0 0 Z " fill="#711B46" transform="translate(86,209)"/>
<path d="M0 0 C3 1 3 1 4.6875 4.375 C6 8 6 8 6 11 C3.69 11.33 1.38 11.66 -1 12 C-1.02687279 10.18757948 -1.04633715 8.37504767 -1.0625 6.5625 C-1.07410156 5.55316406 -1.08570313 4.54382813 -1.09765625 3.50390625 C-1 1 -1 1 0 0 Z " fill="#711B46" transform="translate(171,233)"/>
<path d="M0 0 C2.31 0 4.62 0 7 0 C7 0.99 7 1.98 7 3 C6.34 3 5.68 3 5 3 C5.33 4.32 5.66 5.64 6 7 C6.66 7 7.32 7 8 7 C8 8.32 8 9.64 8 11 C6.02 11 4.04 11 2 11 C2 8.36 2 5.72 2 3 C1.34 3 0.68 3 0 3 C0 2.01 0 1.02 0 0 Z " fill="#711B46" transform="translate(145,45)"/>
<path d="M0 0 C3.33333333 1.66666667 6.66666667 3.33333333 10 5 C9.67 6.32 9.34 7.64 9 9 C5 9 5 9 3.296875 7.6875 C2.78640625 7.130625 2.2759375 6.57375 1.75 6 C1.22921875 5.443125 0.7084375 4.88625 0.171875 4.3125 C-0.21484375 3.879375 -0.6015625 3.44625 -1 3 C-0.67 2.01 -0.34 1.02 0 0 Z " fill="#711B46" transform="translate(214,209)"/>
<path d="M0 0 C0.99 0.33 1.98 0.66 3 1 C2.60404157 2.48484412 2.18249294 3.9628831 1.75 5.4375 C1.51796875 6.26121094 1.2859375 7.08492187 1.046875 7.93359375 C0 10 0 10 -2.109375 10.78515625 C-2.73328125 10.85605469 -3.3571875 10.92695313 -4 11 C-3.39301257 6.87248551 -1.96189209 3.6678852 0 0 Z " fill="#711B46" transform="translate(112,228)"/>
<path d="M0 0 C0.99 0.33 1.98 0.66 3 1 C3.33 1.99 3.66 2.98 4 4 C3.01 5.485 3.01 5.485 2 7 C0.68 6.34 -0.64 5.68 -2 5 C-1.125 1.125 -1.125 1.125 0 0 Z " fill="#711B46" transform="translate(228,192)"/>
<path d="M0 0 C1.65 0 3.3 0 5 0 C5.33 1.32 5.66 2.64 6 4 C4.35 4.33 2.7 4.66 1 5 C0.67 3.35 0.34 1.7 0 0 Z " fill="#711B46" transform="translate(68,193)"/>
<path d="M0 0 C1.65 0 3.3 0 5 0 C4.67 2.31 4.34 4.62 4 7 C3.01 7 2.02 7 1 7 C0.67 4.69 0.34 2.38 0 0 Z " fill="#711B46" transform="translate(140,49)"/>
</svg>
